{"title":"Bajrangi Bhaijaan (2015) Non-Retail DVD Team EXD[John F Nash]","uid":12152960,"size":1292296018,"categoryP":"video","categoryS":"movies","magnet":"?xt=urn:btih:60102fb4e53f7b2a57ff90ebd83fba057709339f&amp;dn=Bajrangi+Bhaijaan+%282015%29+Non-Retail+DVD+Team+EXD%5BJohn+F+Nash%5D&amp;tr=udp%3A%2F%2Ftracker.openbittorrent.com%3A80&amp;tr=udp%3A%2F%2Fopen.demonii.com%3A1337&amp;tr=udp%3A%2F%2Ftracker.coppersurfer.tk%3A6969&amp;tr=udp%3A%2F%2Fexodus.desync.com%3A6969","seeders":3,"leechers":0,"uploader":"SS132203","files":3,"time":1437684370,"description":"Bajrangi Bhaijaan (2015) Non-Retail DVD Team EXD[John F Nash]\n &lt;a href=&quot;\nhttp://imgsparrow.co/image/cW&quot; rel=&quot;nofollow&quot; target=&quot;_NEW&quot;&gt;\nhttp://imgsparrow.co/image/cW&lt;/a&gt;\n &lt;a href=&quot;\nhttp://imgsparrow.co/image/ii&quot; rel=&quot;nofollow&quot; target=&quot;_NEW&quot;&gt;\nhttp://imgsparrow.co/image/ii&lt;/a&gt;\n &lt;a href=&quot;\nhttp://imgsparrow.co/image/9b&quot; rel=&quot;nofollow&quot; target=&quot;_NEW&quot;&gt;\nhttp://imgsparrow.co/image/9b&lt;/a&gt;\n\nInfo : - \n\nGive Big Thanks To John F Nash (Team EXD) Not ME!\n\n**FIRST ON NET**\n\npart 1\n\nFormat                         : AVI\nFormat/Info                    : Audio Video Interleave\nFile size                      : 567 MiB\nDuration                       : 362h 40mn\nOverall bit rate               : 3 646 bps\n\nVideo\nID                             : 0\nFormat                         : AVC\nFormat/Info                    : Advanced Video Codec\nFormat profile                 : &lt;a class=&quot;__cf_email__&quot; href=&quot;/cdn-cgi/l/email-protection&quot; data-cfemail=&quot;b9f1d0ded1f9f58b9788&quot;&gt;[email&amp;#160;protected]&lt;/a&gt;&lt;script data-cfhash='f9e31' type=&quot;text/javascript&quot;&gt;\n/* &lt;![CDATA[ */!function(){try{var t=&quot;currentScript&quot;in document?document.currentScript:function(){for(var t=document.getElementsByTagName(&quot;script&quot;),e=t.length;e--;)if(t[e].getAttribute(&quot;data-cfhash&quot;))return t[e]}();if(t&amp;&amp;t.previousSibling){var e,r,n,i,c=t.previousSibling,a=c.getAttribute(&quot;data-cfemail&quot;);if(a){for(e=&quot;&quot;,r=parseInt(a.substr(0,2),16),n=2;a.length-n;n+=2)i=parseInt(a.substr(n,2),16)^r,e+=String.fromCharCode(i);e=document.createTextNode(e),c.parentNode.replaceChild(e,c)}t.parentNode.removeChild(t);}}catch(u){}}()/* ]]&gt; */&lt;/script&gt;\nFormat settings, CABAC         : Yes\nFormat settings, ReFrames      : 4 frames\nCodec ID                       : H264\nDuration                       : 1h 16mn\nBit rate                       : 912 Kbps\nWidth                          : 608 pixels\nHeight                         : 256 pixels\nDisplay aspect ratio           : 2.40:1\nFrame rate                     : 24.000 fps\nColor space                    : YUV\nChroma subsampling             : 4:2:0\nBit depth                      : 8 bits\nScan type                      : Progressive\nBits/(Pixel*Frame)             : 0.244\nStream size                    : 501 MiB (88%)\nWriting library                : x264 core 146 r2538 121396c\n\n\nAudio\nID                             : 1\nFormat                         : AAC\nFormat/Info                    : Advanced Audio Codec\nFormat profile                 : LC\nCodec ID                       : FF\nDuration                       : 362h 40mn\nSource duration                : 1h 25mn\nBit rate                       : 96.0 Kbps\nChannel(s)                     : 2 channels\nChannel positions              : Front: L R\nSampling rate                  : 48.0 KHz\nCompression mode               : Lossy\nStream size                    : 58.4 MiB (10%)\nAlignment                      : Aligned on interleaves\nInterleave, duration           : 21 ms (0.51 video frame)\n\n\npart 2\n\nFormat                         : AVI\nFormat/Info                    : Audio Video Interleave\nFile size                      : 665 MiB\nDuration                       : 381h 54mn\nOverall bit rate               : 4 057 bps\n\nVideo\nID                             : 0\nFormat                         : AVC\nFormat/Info                    : Advanced Video Codec\nFormat profile                 : &lt;a class=&quot;__cf_email__&quot; href=&quot;/cdn-cgi/l/email-protection&quot; data-cfemail=&quot;4901202e2109057b6778&quot;&gt;[email&amp;#160;protected]&lt;/a&gt;&lt;script data-cfhash='f9e31' type=&quot;text/javascript&quot;&gt;\n/* &lt;![CDATA[ */!function(){try{var t=&quot;currentScript&quot;in document?document.currentScript:function(){for(var t=document.getElementsByTagName(&quot;script&quot;),e=t.length;e--;)if(t[e].getAttribute(&quot;data-cfhash&quot;))return t[e]}();if(t&amp;&amp;t.previousSibling){var e,r,n,i,c=t.previousSibling,a=c.getAttribute(&quot;data-cfemail&quot;);if(a){for(e=&quot;&quot;,r=parseInt(a.substr(0,2),16),n=2;a.length-n;n+=2)i=parseInt(a.substr(n,2),16)^r,e+=String.fromCharCode(i);e=document.createTextNode(e),c.parentNode.replaceChild(e,c)}t.parentNode.removeChild(t);}}catch(u){}}()/* ]]&gt; */&lt;/script&gt;\nFormat settings, CABAC         : Yes\nFormat settings, ReFrames      : 4 frames\nCodec ID                       : H264\nDuration                       : 1h 22mn\nBit rate                       : 1 006 Kbps\nWidth                          : 608 pixels\nHeight                         : 256 pixels\nDisplay aspect ratio           : 2.40:1\nFrame rate                     : 24.000 fps\nColor space                    : YUV\nChroma subsampling             : 4:2:0\nBit depth                      : 8 bits\nScan type                      : Progressive\nBits/(Pixel*Frame)             : 0.269\nStream size                    : 595 MiB (89%)\nWriting library                : x264 core 146 r2538 121396c\n\n\nAudio\nID                             : 1\nFormat                         : AAC\nFormat/Info                    : Advanced Audio Codec\nFormat profile                 : LC\nCodec ID                       : FF\nDuration                       : 381h 54mn\nSource duration                : 1h 29mn\nBit rate                       : 96.0 Kbps\nChannel(s)                     : 2 channels\nChannel positions              : Front: L R\nSampling rate                  : 48.0 KHz\nCompression mode               : Lossy\nStream size                    : 61.5 MiB (9%)\nAlignment                      : Split accross interleaves\nInterleave, duration           : 21 ms (0.51 video frame)\n\nSource:- John F Nash (Team EXD)\n\nRipper:- John F Nash\n\nNote:- Its takes almost 3hr to lip sync audio. also source is divided in many parts so i have to merge all part and rip along with proper audio lip sync takes hrs for that i have tried my best. please check sample before downloading whole rip Movie divided into 2part. enjoy\n\nScreens : - \n &lt;a href=&quot;\nhttp://imgsparrow.co/image/Rl&quot; rel=&quot;nofollow&quot; target=&quot;_NEW&quot;&gt;\nhttp://imgsparrow.co/image/Rl&lt;/a&gt; &lt;a href=&quot;\nhttp://imgsparrow.co/image/Rs&quot; rel=&quot;nofollow&quot; target=&quot;_NEW&quot;&gt;\nhttp://imgsparrow.co/image/Rs&lt;/a&gt; &lt;a href=&quot;\nhttp://imgsparrow.co/image/RS&quot; rel=&quot;nofollow&quot; target=&quot;_NEW&quot;&gt;\nhttp://imgsparrow.co/image/RS&lt;/a&gt; &lt;a href=&quot;\nhttp://imgsparrow.co/image/RR&quot; rel=&quot;nofollow&quot; target=&quot;_NEW&quot;&gt;\nhttp://imgsparrow.co/image/RR&lt;/a&gt; &lt;a href=&quot;\nhttp://imgsparrow.co/image/Rv&quot; rel=&quot;nofollow&quot; target=&quot;_NEW&quot;&gt;\nhttp://imgsparrow.co/image/Rv&lt;/a&gt; &lt;a href=&quot;\nhttp://imgsparrow.co/image/Rx&quot; rel=&quot;nofollow&quot; target=&quot;_NEW&quot;&gt;\nhttp://imgsparrow.co/image/Rx&lt;/a&gt; &lt;a href=&quot;\nhttp://imgsparrow.co/image/RC&quot; rel=&quot;nofollow&quot; target=&quot;_NEW&quot;&gt;\nhttp://imgsparrow.co/image/RC&lt;/a&gt; &lt;a href=&quot;\nhttp://imgsparrow.co/image/R1&quot; rel=&quot;nofollow&quot; target=&quot;_NEW&quot;&gt;\nhttp://imgsparrow.co/image/R1&lt;/a&gt; &lt;a href=&quot;\nhttp://imgsparrow.co/image/v6&quot; rel=&quot;nofollow&quot; target=&quot;_NEW&quot;&gt;\nhttp://imgsparrow.co/image/v6&lt;/a&gt;\n &lt;a href=&quot;\nhttp://imgsparrow.co/image/N2&quot; rel=&quot;nofollow&quot; target=&quot;_NEW&quot;&gt;\nhttp://imgsparrow.co/image/N2&lt;/a&gt;","torrent":{"xt":"urn:btih:60102fb4e53f7b2a57ff90ebd83fba057709339f","amp;dn":"Bajrangi+Bhaijaan+%282015%29+Non-Retail+DVD+Team+EXD%5BJohn+F+Nash%5D","amp;tr":["udp%3A%2F%2Ftracker.openbittorrent.com%3A80","udp%3A%2F%2Fopen.demonii.com%3A1337","udp%3A%2F%2Ftracker.coppersurfer.tk%3A6969","udp%3A%2F%2Fexodus.desync.com%3A6969"],"infoHash":"60102fb4e53f7b2a57ff90ebd83fba057709339f","infoHashBuffer":{"type":"Buffer","data":[96,16,47,180,229,63,123,42,87,255,144,235,216,63,186,5,119,9,51,159]},"announce":[],"urlList":[]}}